<svg width="24" height="24" version="1.1" viewBox="0 0 48 48" xmlns="http://www.w3.org/2000/svg">
	<path d="m24.73 2.966c-0.39-0.3877-1.02-0.3877-1.41 0l-20.65 13.59-7e-7 6.908 21.35-13.87 21.32 13.92 1e-6 -6.918z" fill="#fff"/>
	<path d="m13.25 39.7v-20.5l-5.673 3.495 5.542e-4 22.64 37.86-1e-6v-5.635z" fill="#fff"/>
	<path d="m24.02 18.87v2.906h21.32v-2.906h-21.32zm0 3.848v2.906h21.32v-2.906h-21.32zm0 3.852v2.906h21.32v-2.906h-21.32zm0 3.852v2.902h21.32v-2.902h-21.32zm0 3.848v2.906h21.32v-2.906h-21.32z" fill="#fff"/>
</svg>
